<svg xmlns="http://www.w3.org/2000/svg" viewBox="0 0 200 200" width="200" height="200">
  <!-- Isotipo Rebelión · Sol 12 puntas · PANTONE 476C + 2145C -->
  <path d="M 88.09,55.57 Q 94.26,56.38 100.00,14.00 Q 105.74,56.38 111.91,55.57 Q 116.84,59.35 143.00,25.52 Q 126.79,65.09 132.53,67.47 Q 134.91,73.21 174.48,57.00 Q 140.65,83.16 144.43,88.09 Q 143.62,94.26 186.00,100.00 Q 143.62,105.74 144.43,111.91 Q 140.65,116.84 174.48,143.00 Q 134.91,126.79 132.53,132.53 Q 126.79,134.91 143.00,174.48 Q 116.84,140.65 111.91,144.43 Q 105.74,143.62 100.00,186.00 Q 94.26,143.62 88.09,144.43 Q 83.16,140.65 57.00,174.48 Q 73.21,134.91 67.47,132.53 Q 65.09,126.79 25.52,143.00 Q 59.35,116.84 55.57,111.91 Q 56.38,105.74 14.00,100.00 Q 56.38,94.26 55.57,88.09 Q 59.35,83.16 25.52,57.00 Q 65.09,73.21 67.47,67.47 Q 73.21,65.09 57.00,25.52 Q 83.16,59.35 88.09,55.57 Z" fill="#2d290e"/>
  <circle cx="100" cy="100" r="34" fill="#004EA8"/>
</svg>