<svg xmlns="http://www.w3.org/2000/svg" viewBox="0 0 200 200" width="200" height="200">
  <!-- Rayos del sol — color oscuro Rebelión PANTONE 476C -->
  <path d="M 90.68,65.23 L 100.00,10.00 L 109.32,65.23 L 109.32,65.23 L 145.00,22.06 L 125.46,74.54 L 125.46,74.54 L 177.94,55.00 L 134.77,90.68 L 134.77,90.68 L 190.00,100.00 L 134.77,109.32 L 134.77,109.32 L 177.94,145.00 L 125.46,125.46 L 125.46,125.46 L 145.00,177.94 L 109.32,134.77 L 109.32,134.77 L 100.00,190.00 L 90.68,134.77 L 90.68,134.77 L 55.00,177.94 L 74.54,125.46 L 74.54,125.46 L 22.06,145.00 L 65.23,109.32 L 65.23,109.32 L 10.00,100.00 L 65.23,90.68 L 65.23,90.68 L 22.06,55.00 L 74.54,74.54 L 74.54,74.54 L 55.00,22.06 L 90.68,65.23 Z" fill="#2d290e"/>
  <!-- Círculo azul central — PANTONE 2145C -->
  <circle cx="100" cy="100" r="28" fill="#004EA8"/>
</svg>